<svg width="14" height="14" viewBox="0 0 14 14" fill="none" xmlns="http://www.w3.org/2000/svg">
<path d="M13 4.1974C13 4.40387 12.9277 4.57937 12.7832 4.7239L7.17806 10.329L6.12516 11.3819C5.98065 11.5264 5.80516 11.5987 5.59871 11.5987C5.39226 11.5987 5.21677 11.5264 5.07226 11.3819L4.01935 10.329L1.21677 7.5264C1.07226 7.38193 1 7.20647 1 7C1 6.79353 1.07226 6.61803 1.21677 6.4735L2.26968 5.4206C2.41419 5.27613 2.58968 5.2039 2.79613 5.2039C3.00258 5.2039 3.17807 5.27613 3.32258 5.4206L5.59871 7.7045L10.6774 2.6181C10.8219 2.47357 10.9974 2.4013 11.2039 2.4013C11.4103 2.4013 11.5858 2.47357 11.7303 2.6181L12.7832 3.671C12.9277 3.81547 13 3.99093 13 4.1974Z" fill="white"/>
</svg>
