<svg width="228" height="46" viewBox="0 0 228 46" fill="none" xmlns="http://www.w3.org/2000/svg">
<path d="M21.084 1.782C21.8187 2.014 22.418 2.42 22.882 3C23.3847 3.54133 23.636 4.43066 23.636 5.668C23.636 6.90533 23.2687 8.25867 22.534 9.728C21.7993 11.1973 20.736 11.932 19.344 11.932C18.648 11.932 17.9713 11.7773 17.314 11.468C16.6953 11.1587 15.864 11.004 14.82 11.004C13.776 11.004 12.79 11.3713 11.862 12.106C10.9727 12.8407 10.528 13.73 10.528 14.774V26.954C10.528 27.8433 10.4893 28.52 10.412 28.984C10.3733 29.4093 10.1993 29.912 9.89 30.492C9.31 31.4973 7.802 32 5.366 32C3.51 32 2.176 31.6713 1.364 31.014C0.745333 30.4727 0.397334 29.6413 0.32 28.52C0.32 28.1333 0.32 27.5727 0.32 26.838V6.48C0.32 5.59067 0.339333 4.93333 0.378 4.508C0.455333 4.044 0.629333 3.54133 0.9 3C1.44133 1.956 2.94933 1.434 5.424 1.434C7.744 1.434 9.194 1.87867 9.774 2.768C10.1993 3.38667 10.412 4.02466 10.412 4.682C10.6053 4.41133 10.876 4.08267 11.224 3.696C11.6107 3.30933 12.4033 2.78733 13.602 2.13C14.8007 1.47267 15.8447 1.144 16.734 1.144C17.662 1.144 18.4353 1.202 19.054 1.318C19.6727 1.39533 20.3493 1.55 21.084 1.782ZM24.202 16.746C24.202 12.106 25.826 8.278 29.074 5.262C32.322 2.246 36.034 0.737998 40.21 0.737998C44.386 0.737998 48.0786 2.246 51.288 5.262C54.4973 8.23933 56.102 12.048 56.102 16.688C56.102 19.8973 55.2706 22.7587 53.608 25.272C51.9453 27.7467 49.9153 29.5833 47.518 30.782C45.1593 31.942 42.704 32.522 40.152 32.522C37.6 32.522 35.1253 31.9033 32.728 30.666C30.3306 29.39 28.3006 27.534 26.638 25.098C25.014 22.6233 24.202 19.8393 24.202 16.746ZM36.324 20.922C37.5613 21.85 38.818 22.314 40.094 22.314C41.37 22.314 42.646 21.8307 43.922 20.864C45.198 19.8973 45.836 18.4667 45.836 16.572C45.836 14.6773 45.2366 13.266 44.038 12.338C42.8393 11.41 41.544 10.946 40.152 10.946C38.76 10.946 37.4646 11.4293 36.266 12.396C35.0673 13.3627 34.468 14.7933 34.468 16.688C34.468 18.544 35.0866 19.9553 36.324 20.922ZM73.4213 31.884C69.516 31.884 66.268 30.4147 63.6773 27.476C61.1253 24.4987 59.8493 20.8833 59.8493 16.63V6.48C59.8493 5.552 59.8686 4.87533 59.9073 4.45C59.9846 4.02466 60.1586 3.522 60.4293 2.942C60.9706 1.898 62.4786 1.376 64.9533 1.376C67.66 1.376 69.2453 2.11067 69.7093 3.58C69.9413 4.19867 70.0573 5.18467 70.0573 6.538V16.688C70.0573 18.2733 70.502 19.5107 71.3913 20.4C72.3193 21.2893 73.5373 21.734 75.0453 21.734C76.592 21.734 77.8293 21.27 78.7573 20.342C79.724 19.414 80.2073 18.196 80.2073 16.688V6.422C80.2073 5.53267 80.2266 4.87533 80.2653 4.45C80.3426 3.986 80.536 3.464 80.8453 2.884C81.348 1.87867 82.8366 1.376 85.3113 1.376C87.7473 1.376 89.236 1.898 89.7773 2.942C90.048 3.522 90.2026 4.044 90.2413 4.508C90.3186 4.93333 90.3573 5.59067 90.3573 6.48V27.012C90.3573 27.8627 90.3186 28.52 90.2413 28.984C90.2026 29.4093 90.0286 29.8927 89.7193 30.434C89.1393 31.4393 87.6506 31.942 85.2533 31.942C82.8946 31.942 81.4446 31.478 80.9033 30.55C80.5166 29.8927 80.3233 29.1 80.3233 28.172C80.1686 28.4427 79.8206 28.8293 79.2793 29.332C78.738 29.8347 78.216 30.26 77.7133 30.608C76.3986 31.4587 74.968 31.884 73.4213 31.884Z" fill="#521110"/>
<path d="M95.0231 40.294V6.422C95.0231 5.53267 95.0425 4.87533 95.0811 4.45C95.1585 4.02466 95.3325 3.54133 95.6031 3C96.1445 1.956 97.4398 1.434 99.4891 1.434C101.538 1.434 102.911 1.70467 103.607 2.246C104.342 2.74867 104.767 3.50267 104.883 4.508C106.352 2.49733 108.653 1.492 111.785 1.492C114.956 1.492 117.952 2.98067 120.775 5.958C123.598 8.93533 125.009 12.396 125.009 16.34C125.009 20.284 123.598 23.7447 120.775 26.722C117.991 29.6993 115.014 31.188 111.843 31.188C108.672 31.188 106.372 30.2987 104.941 28.52V40.236C104.941 41.1253 104.902 41.7827 104.825 42.208C104.786 42.6333 104.612 43.1167 104.303 43.658C104.032 44.238 103.549 44.644 102.853 44.876C102.157 45.108 101.21 45.224 100.011 45.224C98.8125 45.224 97.8458 45.108 97.1111 44.876C96.4151 44.644 95.9125 44.2573 95.6031 43.716C95.3325 43.1747 95.1585 42.6913 95.0811 42.266C95.0425 41.8407 95.0231 41.1833 95.0231 40.294ZM106.507 12.976C105.618 14.02 105.173 15.1607 105.173 16.398C105.173 17.6353 105.618 18.776 106.507 19.82C107.435 20.8253 108.595 21.328 109.987 21.328C111.418 21.328 112.616 20.8253 113.583 19.82C114.588 18.8147 115.091 17.674 115.091 16.398C115.091 15.122 114.627 13.9813 113.699 12.976C112.771 11.932 111.553 11.41 110.045 11.41C108.576 11.41 107.396 11.932 106.507 12.976Z" fill="#D73227"/>
<path d="M148.617 4.682C148.849 2.51667 150.376 1.434 153.199 1.434C154.707 1.434 155.828 1.55 156.563 1.782C157.298 2.014 157.8 2.42 158.071 3C158.38 3.58 158.554 4.102 158.593 4.566C158.67 4.99133 158.709 5.64867 158.709 6.538V26.838C158.709 27.7273 158.67 28.404 158.593 28.868C158.554 29.2933 158.4 29.796 158.129 30.376C157.588 31.3813 156.254 31.884 154.127 31.884C152.039 31.884 150.628 31.6327 149.893 31.13C149.197 30.5887 148.791 29.8153 148.675 28.81C147.244 30.8593 144.847 31.884 141.483 31.884C138.158 31.884 135.064 30.3567 132.203 27.302C129.342 24.2473 127.911 20.7093 127.911 16.688C127.911 12.628 129.342 9.09 132.203 6.074C135.103 3.01933 138.274 1.492 141.715 1.492C143.03 1.492 144.228 1.724 145.311 2.188C146.394 2.652 147.148 3.09666 147.573 3.522C147.998 3.90866 148.346 4.29533 148.617 4.682ZM138.061 16.746C138.061 18.022 138.564 19.182 139.569 20.226C140.574 21.2313 141.792 21.734 143.223 21.734C144.654 21.734 145.833 21.212 146.761 20.168C147.728 19.124 148.211 17.9833 148.211 16.746C148.211 15.47 147.747 14.2907 146.819 13.208C145.93 12.1253 144.712 11.584 143.165 11.584C141.657 11.584 140.42 12.1253 139.453 13.208C138.525 14.2907 138.061 15.47 138.061 16.746Z" fill="#E99923"/>
<path d="M180.326 1.434C184.192 1.434 187.402 2.92267 189.954 5.9C192.544 8.83867 193.84 12.4347 193.84 16.688V26.896C193.84 27.7853 193.801 28.462 193.724 28.926C193.685 29.3513 193.53 29.8347 193.26 30.376C192.718 31.42 191.21 31.942 188.736 31.942C185.99 31.942 184.405 31.2267 183.98 29.796C183.748 29.1387 183.632 28.1527 183.632 26.838V16.63C183.632 15.0447 183.168 13.8073 182.24 12.918C181.35 12.0287 180.132 11.584 178.586 11.584C177.078 11.584 175.84 12.048 174.874 12.976C173.946 13.904 173.482 15.122 173.482 16.63V26.896C173.482 27.7853 173.443 28.462 173.366 28.926C173.327 29.3513 173.153 29.8347 172.844 30.376C172.341 31.42 170.852 31.942 168.378 31.942C165.942 31.942 164.453 31.42 163.912 30.376C163.641 29.796 163.467 29.2933 163.39 28.868C163.351 28.404 163.332 27.7273 163.332 26.838V6.306C163.332 5.45533 163.351 4.81733 163.39 4.392C163.467 3.928 163.66 3.42533 163.97 2.884C164.511 1.91733 166 1.434 168.436 1.434C170.794 1.434 172.244 1.87867 172.786 2.768C173.172 3.42533 173.366 4.218 173.366 5.146C173.52 4.87533 173.868 4.48867 174.41 3.986C174.951 3.48333 175.473 3.07733 175.976 2.768C177.29 1.87867 178.74 1.434 180.326 1.434Z" fill="#98BE49"/>
<path d="M217.878 28.172C216.408 30.1053 214.069 31.072 210.86 31.072C207.65 31.072 204.634 29.6027 201.812 26.664C199.028 23.6867 197.636 20.226 197.636 16.282C197.636 12.338 199.047 8.87733 201.87 5.9C204.692 2.92267 207.786 1.434 211.15 1.434C212.464 1.434 213.663 1.68533 214.746 2.188C215.828 2.652 216.563 3.09666 216.95 3.522C217.375 3.90866 217.704 4.276 217.936 4.624C218.052 3.54133 218.438 2.72933 219.096 2.188C219.792 1.608 220.894 1.318 222.402 1.318C223.91 1.318 225.012 1.434 225.708 1.666C226.404 1.898 226.887 2.304 227.158 2.884C227.467 3.42533 227.641 3.90866 227.68 4.334C227.757 4.75933 227.796 5.41667 227.796 6.306V30.318C227.796 34.7647 226.249 38.3413 223.156 41.048C220.062 43.7933 216.582 45.166 212.716 45.166C209.777 45.166 206.974 44.4507 204.306 43.02C201.638 41.5893 200.304 40.294 200.304 39.134C200.304 37.626 200.884 36.292 202.044 35.132C202.778 34.32 203.339 33.7593 203.726 33.45C204.151 33.1407 204.634 32.986 205.176 32.986C205.717 32.986 206.278 33.218 206.858 33.682C208.714 35.1127 210.724 35.828 212.89 35.828C214.359 35.828 215.558 35.248 216.486 34.088C217.414 32.928 217.878 31.536 217.878 29.912V28.172ZM207.554 16.34C207.554 17.5773 208.037 18.6987 209.004 19.704C210.009 20.7093 211.208 21.212 212.6 21.212C214.03 21.212 215.21 20.7093 216.138 19.704C217.066 18.66 217.53 17.5387 217.53 16.34C217.53 15.1027 217.085 13.962 216.196 12.918C215.306 11.8353 214.108 11.294 212.6 11.294C211.092 11.294 209.874 11.816 208.946 12.86C208.018 13.904 207.554 15.064 207.554 16.34Z" fill="#50A3D9"/>
</svg>
