<svg width="28" height="28" viewBox="0 0 28 28" fill="none" xmlns="http://www.w3.org/2000/svg">
<path fill-rule="evenodd" clip-rule="evenodd" d="M16.739 16.74L20.485 20.486L16.739 16.74ZM16.694 9.078C17.1941 9.57807 17.5908 10.1717 17.8614 10.8251C18.132 11.4785 18.2713 12.1788 18.2713 12.886C18.2713 13.5932 18.132 14.2935 17.8614 14.9469C17.5908 15.6002 17.1941 16.1939 16.694 16.694C16.1939 17.1941 15.6002 17.5908 14.9469 17.8614C14.2935 18.132 13.5932 18.2713 12.886 18.2713C12.1788 18.2713 11.4785 18.132 10.8251 17.8614C10.1717 17.5908 9.57807 17.1941 9.078 16.694C8.06805 15.6841 7.50067 14.3143 7.50067 12.886C7.50067 11.4577 8.06805 10.0879 9.078 9.078C10.0879 8.06805 11.4577 7.50067 12.886 7.50067C14.3143 7.50067 15.6841 8.06805 16.694 9.078V9.078Z" stroke="white" stroke-width="1.5"/>
</svg>
